# Blender 3.6.2
# www.blender.org
mtllib satellite_collisionbox.mtl
o Cone
v 0.043236 0.058118 0.038325
v 0.031973 0.081073 0.045909
v 0.022240 0.103070 0.038868
v 0.009035 0.125453 -0.003346
v 0.017628 0.102887 -0.047032
v 0.027380 0.080092 -0.053129
v 0.038854 0.057837 -0.047720
v 0.051257 0.035363 -0.005098
v 0.046883 0.087988 -0.004344
v -0.021827 0.066164 -0.004303
v 0.008513 0.062001 -0.026012
v 0.010704 0.062141 0.017011
v 0.032986 0.041420 -0.004899
v -0.003865 0.044550 -0.002490
v 0.034291 0.045072 -0.014426
v 0.035262 0.045128 0.004699
vn 0.8900 0.3343 0.3101
vn 0.8287 0.4659 0.3100
vn 0.6972 0.7003 0.1532
vn 0.6825 0.6954 -0.2250
vn 0.8025 0.4486 -0.3934
vn 0.8518 0.3429 -0.3960
vn -0.8167 0.4313 -0.3834
vn 0.9678 0.0838 -0.2374
vn 0.9869 0.0800 0.1404
vn -0.7901 0.4038 0.4612
vn -0.6862 -0.1009 -0.7204
vn -0.5387 -0.3848 0.7495
vn -0.0182 -0.7356 0.6772
vn -0.5584 -0.4562 -0.6929
vn -0.1065 -0.7709 -0.6280
vn -0.3716 -0.8330 0.4099
vn -0.3847 -0.8430 -0.3759
vn -0.5459 -0.5094 -0.6652
vn -0.6719 -0.0611 0.7381
vn -0.5200 -0.4870 0.7017
vn -0.2951 -0.8779 -0.3770
vn -0.2840 -0.8698 0.4034
vt 0.250000 0.490000
vt 0.250000 0.250000
vt 0.419706 0.419706
vt 0.490000 0.250000
vt 0.419706 0.080294
vt 0.250000 0.010000
vt 0.080294 0.080294
vt 0.010000 0.250000
vt 0.750972 0.249028
vt 0.919706 0.080294
vt 0.750000 0.010000
vt 0.080294 0.419706
vt 0.990000 0.250000
vt 0.752054 0.250122
vt 0.580294 0.080294
vt 0.749672 0.246705
vt 0.749834 0.370166
vt 0.749667 0.250333
vt 0.664981 0.335019
vt 0.622638 0.377243
vt 0.510000 0.250000
vt 0.629835 0.249021
vt 0.664981 0.334542
vt 0.650918 0.402281
vt 0.597578 0.348934
vt 0.749669 0.249379
vt 0.919706 0.419706
vt 0.750000 0.490000
vt 0.580294 0.419706
s 0
f 1/1/1 9/2/1 2/3/1
f 2/3/2 9/2/2 3/4/2
f 3/4/3 9/2/3 4/5/3
f 4/5/4 9/2/4 5/6/4
f 5/6/5 9/2/5 6/7/5
f 6/7/6 9/2/6 7/8/6
f 10/9/7 4/10/7 5/11/7
f 7/8/8 9/2/8 8/12/8
f 8/12/9 9/2/9 1/1/9
f 3/13/10 4/10/10 10/14/10
f 6/15/11 10/16/11 5/11/11
f 12/17/12 10/18/12 14/19/12
f 13/20/13 12/17/13 14/19/13
f 7/21/14 11/22/14 10/16/14 6/15/14
f 13/20/15 14/23/15 11/22/15
f 12/17/16 13/20/16 16/24/16
f 11/22/17 7/21/17 15/25/17
f 14/23/18 10/26/18 11/22/18
f 2/27/19 3/13/19 10/14/19
f 1/28/20 2/27/20 10/18/20 12/17/20
f 8/29/21 13/20/21 15/25/21
f 8/29/22 1/28/22 16/24/22
f 13/20/17 11/22/17 15/25/17
f 7/21/21 8/29/21 15/25/21
f 1/28/16 12/17/16 16/24/16
f 13/20/22 8/29/22 16/24/22
